PathFileType	4	(X/Y/Z)	/Users/niels/Desktop/University/Third Semester/Perception and Action/Exam/Gymnastics Motion Tracking/Code for Gym Tracking/Analyzed Data/Webcam_Backflip/id2000_2_trajectory_Sports2D/id2000_2_trajectory_Sports2D_px_person00.trc
DataRate	CameraRate	NumFrames	NumMarkers	Units	OrigDataRate	OrigDataStartFrame	OrigNumFrames
29.8876404494382	29.8876404494382	11	22	m	29.8876404494382	100	267
Frame#	Time	Hip			RHip			RKnee			RAnkle			RBigToe			RSmallToe			RHeel			LHip			LKnee			LAnkle			LBigToe			LSmallToe			LHeel			Neck			Head			Nose			RShoulder			RElbow			RWrist			LShoulder			LElbow			LWrist		
		X1	Y1	Z1	X2	Y2	Z2	X3	Y3	Z3	X4	Y4	Z4	X5	Y5	Z5	X6	Y6	Z6	X7	Y7	Z7	X8	Y8	Z8	X9	Y9	Z9	X10	Y10	Z10	X11	Y11	Z11	X12	Y12	Z12	X13	Y13	Z13	X14	Y14	Z14	X15	Y15	Z15	X16	Y16	Z16	X17	Y17	Z17	X18	Y18	Z18	X19	Y19	Z19	X20	Y20	Z20	X21	Y21	Z21	X22	Y22	Z22
100	3.3458646616541357	1.0193319764990183	-0.42988042848778346	0.0	1.0115345678722543	-0.4372926108225379	0.0	1.3318701960981338	-0.6163870066339684	0.0	1.1915367350206707	-0.9761376699763717	0.0	1.2564033552947784	-1.0619798158484264	0.0	1.227200211080039	-1.0620739291009247	0.0	1.1370817711314039	-1.000725842064729	0.0	1.0148462385593775	-0.44279828886016115	0.0	1.0174212486872702	-0.835293984413873	0.0	0.9934295196774477	-1.0687546879593481	0.0	1.1509507486709543	-1.1969648487004332	0.0	1.1367439372205148	-1.1332010672024866	0.0	0.9720461712098862	-1.1008372883018498	0.0	1.0271561594493968	-0.039688337584542745	0.0	1.1857728429194034	-0.047109578243063915	0.0	1.1215910032764973	0.0022223334806705476	0.0	0.9684273939353528	-0.02663672072817299	0.0	0.8973925031471712	-0.25459660637862025	0.0	0.9861154226074937	-0.4926477810346169	0.0	1.080102603860382	-0.06422442498187968	0.0	1.0386105499482996	-0.2861245811697281	0.0	1.1071478683143943	-0.4623088542678373	0.0
101	3.379323308270677	1.0187000198899223	-0.43449717192904486	0.0	1.0093000433791253	-0.442850407917448	0.0	1.3150564442163755	-0.6492704301773543	0.0	1.1652973862820273	-1.0029344173658044	0.0	1.2299727740804602	-1.0715908204859166	0.0	1.1934748765868204	-1.0737685814683473	0.0	1.1111730979043888	-1.0242747907244354	0.0	1.0179148273538121	-0.447625464472975	0.0	1.0163024923970945	-0.8375763616657561	0.0	0.9895099721935964	-1.068450997327578	0.0	1.1440229169478981	-1.2026455068055133	0.0	1.1316278431601465	-1.1549491221397739	0.0	0.9647785133806895	-1.0932587364521604	0.0	1.0272945220276528	-0.03741156294009811	0.0	1.1857758408133043	-0.04711650623292205	0.0	1.1232591403738548	2.5510776226320187e-05	0.0	0.9678689649248956	-0.025139752747778306	0.0	0.8954004942639696	-0.2525628962744213	0.0	0.9921583607450724	-0.4874779793463583	0.0	1.0774366537231197	-0.06321437399155092	0.0	1.0387441060012117	-0.2868687534152768	0.0	1.1059960809268996	-0.46019256701415207	0.0
102	3.412781954887218	1.0181792219200652	-0.4384794979268575	0.0	1.0084729908601802	-0.4478432829970378	0.0	1.295546742827711	-0.6807877682310421	0.0	1.1421257601616412	-1.0256459176833983	0.0	1.211784056270309	-1.0778611300393641	0.0	1.169278280492325	-1.0826711841567802	0.0	1.0891774511106729	-1.0436336885911732	0.0	1.0219921773619751	-0.45189083621703524	0.0	1.0156002030055242	-0.8396333473945939	0.0	0.9856283617250279	-1.0692047489445324	0.0	1.1372707661864245	-1.2038091860696323	0.0	1.130504294869581	-1.1677979987763325	0.0	0.9564438540450233	-1.088812013704417	0.0	1.0273513756591093	-0.034965223873826515	0.0	1.185783414175448	-0.04713147824687928	0.0	1.125575950620809	-0.0020831442894015157	0.0	0.9675678858463086	-0.02375165115779874	0.0	0.8942551873788831	-0.2509503540396662	0.0	0.9977921576599935	-0.4834130512671994	0.0	1.0747963544013437	-0.0618561956558613	0.0	1.0383603159283552	-0.2882370627622131	0.0	1.105938932456124	-0.45867625267307144	0.0
103	3.4462406015037597	1.017728252057523	-0.44165286906682455	0.0	1.0092884191740754	-0.451714827480742	0.0	1.2734363457943514	-0.7104642905281472	0.0	1.1222958605841296	-1.0434326131228724	0.0	1.2011665178297837	-1.0817996603465143	0.0	1.1555050636887647	-1.0895707369734187	0.0	1.0707611127417571	-1.0584408689770677	0.0	1.0247875588634736	-0.45504188511616067	0.0	1.0152322918685306	-0.8399536001859893	0.0	0.9818750881900786	-1.0705288797989974	0.0	1.1322989253409117	-1.1977655293600875	0.0	1.1333514811370613	-1.1680001300284055	0.0	0.9481903548974081	-1.087013620422249	0.0	1.0263631340415564	-0.03335287616664706	0.0	1.185797141284783	-0.047156156414180764	0.0	1.1275812332226538	-0.00383131519810708	0.0	0.9673182157718713	-0.022610555630551036	0.0	0.8945470626186666	-0.24984709829000937	0.0	1.0039664876153451	-0.48065463684200227	0.0	1.0717813396979783	-0.0601758877361224	0.0	1.0363959218553858	-0.29009913706154716	0.0	1.1068187472573863	-0.4582157424074139	0.0
104	3.479699248120301	1.0173180414763776	-0.444200602771244	0.0	1.0109816155681974	-0.4541829245622511	0.0	1.2491018383863632	-0.737872083057373	0.0	1.1055584802463558	-1.0561366204353022	0.0	1.1967044847508028	-1.0844311031005285	0.0	1.1515885055380621	-1.0951504085930608	0.0	1.055174798530684	-1.0690930244266499	0.0	1.0250390141307333	-0.45689924819686234	0.0	1.015328423070456	-0.8380696167691458	0.0	0.9789168779397563	-1.0714800740892005	0.0	1.130699277951814	-1.1828911799049597	0.0	1.1382955372380437	-1.1568480158848322	0.0	0.9413149058729487	-1.0867964356295683	0.0	1.024155199345512	-0.033340067244313064	0.0	1.1858168149335162	-0.04718822377162188	0.0	1.1289726967827802	-0.0051523205041470324	0.0	0.9671091981108053	-0.021817022941273065	0.0	0.8970570938340683	-0.2492453051990581	0.0	1.0123219967226356	-0.47914547018887177	0.0	1.068371853784911	-0.05846362535324853	0.0	1.0323096312995115	-0.29221951026405224	0.0	1.1082480810899105	-0.45886047840913463	0.0
105	3.513157894736842	1.0169098203859657	-0.446620758475354	0.0	1.0120418285227952	-0.45549263997215816	0.0	1.2231403749326992	-0.7628515066133019	0.0	1.0911048567815542	-1.0644097431085822	0.0	1.1964807405709963	-1.0865628463086447	0.0	1.1551195128779044	-1.0998430076771577	0.0	1.0412717279040826	-1.0764213237370295	0.0	1.0233354499346528	-0.45782439237377326	0.0	1.0163244821896456	-0.8350017105376862	0.0	0.9778565065786894	-1.071117754800714	0.0	1.1330455406755848	-1.159715809304471	0.0	1.1428079462667522	-1.1387083916539282	0.0	0.9370759893475856	-1.086601452504429	0.0	1.0215740178031263	-0.03502924361418178	0.0	1.1858380397284747	-0.04721723623299557	0.0	1.1300557938490876	-0.0059951444583602525	0.0	0.967210309860312	-0.021390994308016376	0.0	0.9025867171414309	-0.2490949722914496	0.0	1.0248685408623923	-0.4783455628883761	0.0	1.0652445411379372	-0.05707806712898486	0.0	1.0266641682821969	-0.2940707033068081	0.0	1.1102005267357775	-0.4600502316047461	0.0
106	3.5466165413533837	1.0166212640254833	-0.4492793505965493	0.0	1.0112404484503155	-0.45597472744325374	0.0	1.196180766606646	-0.7854549364828148	0.0	1.0777306820546746	-1.0693797795152984	0.0	1.1981224491207765	-1.0883510654462105	0.0	1.162254380746823	-1.1036324624543257	0.0	1.0277130625857944	-1.081265415829603	0.0	1.0218772189733336	-0.4582588269305726	0.0	1.0189687438971478	-0.832411033910756	0.0	0.9799144306255362	-1.068871616835298	0.0	1.1378570534899786	-1.1321198528603909	0.0	1.1450663905468408	-1.1183957362920351	0.0	0.9367712484609136	-1.0850600579320253	0.0	1.0198177021593422	-0.03813850882792563	0.0	1.1858491499587858	-0.04721988803670545	0.0	1.1313903856028165	-0.006300878491499171	0.0	0.9681124689439115	-0.021262891939554288	0.0	0.9117939524652162	-0.2493890315891947	0.0	1.0433238250409382	-0.4772641045641186	0.0	1.0633487033505271	-0.05638752038859424	0.0	1.021071414625622	-0.2951948577958527	0.0	1.1132066061692116	-0.46068017031320113	0.0
107	3.580075187969925	1.0167827103543279	-0.45195545402219794	0.0	1.0085633338919067	-0.45555206770712986	0.0	1.1687429616142861	-0.8056672489355715	0.0	1.064358098149539	-1.072195743633798	0.0	1.199352775416739	-1.089421435674857	0.0	1.1694642870537721	-1.106311061927318	0.0	1.0136325977152296	-1.0843482623543022	0.0	1.0231550814154973	-0.4582294634442075	0.0	1.024103094085758	-0.8314900768998638	0.0	0.9862882475018656	-1.0647107284977029	0.0	1.142851741880757	-1.1060162075895708	0.0	1.1451063984538778	-1.0995257592093806	0.0	0.9419394234335903	-1.081659454094783	0.0	1.0196745865989283	-0.042269152386712104	0.0	1.1858284950087774	-0.04715695013722529	0.0	1.133629398377748	-0.006152748938055168	0.0	0.9703125780691334	-0.02134985703993964	0.0	0.9250526227584503	-0.25018240483811344	0.0	1.0684185789425984	-0.4749939406492121	0.0	1.0631834493161645	-0.056669622852278535	0.0	1.0176430369787268	-0.29572706914981456	0.0	1.118195993484736	-0.45973743005240414	0.0
108	3.613533834586466	1.0176232893533124	-0.45412784109361937	0.0	1.0051942239061493	-0.45421831489328657	0.0	1.1413328211143612	-0.8231978101628207	0.0	1.0506365608092452	-1.0736738632284992	0.0	1.1986108146439987	-1.0893988491739925	0.0	1.1748568218048179	-1.1078643781284394	0.0	0.9995398977138399	-1.0863211788965452	0.0	1.0281462579516125	-0.4577674566969352	0.0	1.0321031786167187	-0.8326029850861484	0.0	0.9979757083882569	-1.0591220523606026	0.0	1.1475398937258736	-1.0858496514906182	0.0	1.1447685255141444	-1.0838732987643176	0.0	0.9541904448309944	-1.0768319081160982	0.0	1.0213938808919893	-0.04665986619747887	0.0	1.1857443891078534	-0.0469762618214746	0.0	1.1373977094552803	-0.0058262005128008835	0.0	0.9741494470173815	-0.021600939996510766	0.0	0.9424585803976799	-0.25146969512377015	0.0	1.099435559882588	-0.4712117129943914	0.0	1.064347027659431	-0.05779853552257235	0.0	1.0181210317390703	-0.2962384686001615	0.0	1.1260969064197135	-0.45715350161086443	0.0
109	3.6469924812030077	1.0189014554784717	-0.4556149314789892	0.0	1.0026139652864106	-0.4526009653143015	0.0	1.1147136097228267	-0.8376109756661528	0.0	1.0370822286540147	-1.0742111626409538	0.0	1.195198589856912	-1.088196492872595	0.0	1.1780557985471478	-1.1085367987585288	0.0	0.9873888156681139	-1.0876685261904833	0.0	1.0355051311959171	-0.4574260726420951	0.0	1.042107408883465	-0.835549683460797	0.0	1.014893388960356	-1.0530154753617413	0.0	1.1530255571254093	-1.0727604300812956	0.0	1.1457674410238252	-1.0716979540428868	0.0	0.9738409853211739	-1.071664357554445	0.0	1.0247995434306523	-0.05020958985996987	0.0	1.1855615482420192	-0.04662843034232719	0.0	1.142927703157972	-0.005656630012343144	0.0	0.9797502881909602	-0.021902692873604714	0.0	0.9638596467739454	-0.2529967916514271	0.0	1.1341476824840444	-0.4661907280878988	0.0	1.0656043093406478	-0.05910528548157115	0.0	1.0231122120109977	-0.29714656774633236	0.0	1.1372839689526066	-0.45380005132050044	0.0
110	3.680451127819549	1.0199375238610526	-0.45673258766122127	0.0	1.0016020681347957	-0.45158807448043103	0.0	1.0899192661892563	-0.8488185800424507	0.0	1.0244955804908464	-1.0740162135600322	0.0	1.1892090513529778	-1.0859457833186856	0.0	1.1794860980769377	-1.108664158737877	0.0	0.9789580308105483	-1.0885959570657135	0.0	1.0426107645472764	-0.45791751490172145	0.0	1.051802591809093	-0.8398647464314389	0.0	1.0344675874714115	-1.0474760921420687	0.0	1.1594844768578203	-1.0654936574627343	0.0	1.1479797384326391	-1.0625501169119393	0.0	0.9977653475036128	-1.0673809562456729	0.0	1.0292916539898516	-0.05208216873563588	0.0	1.1852590348422631	-0.04610305342503433	0.0	1.149717749406657	-0.005836765403360857	0.0	0.9869610122007744	-0.02201103197288213	0.0	0.9886430137180838	-0.2542756360937015	0.0	1.1693800941788015	-0.4606384900255349	0.0	1.0655552106597828	-0.059639605569397916	0.0	1.0319652573380385	-0.2984783792430313	0.0	1.1513461502395368	-0.45076542597938757	0.0
